<mxfile modified="2020-10-12T22:17:18.520Z" host="app.diagrams.net" agent="5.0 (Windows NT 10.0; Win64; x64) AppleWebKit/537.36 (KHTML, like Gecko) Chrome/86.0.4240.75 Safari/537.36" etag="HY9bJ9RpofM64g1B8PiC" version="13.7.9" type="github" pages="4">
  <diagram id="KeV2ZuzA3Sxgm46IGdo2" name="Page-2">
    <mxGraphModel dx="1038" dy="579" grid="1" gridSize="10" guides="1" tooltips="1" connect="1" arrows="1" fold="1" page="1" pageScale="1" pageWidth="1169" pageHeight="827" math="0" shadow="0">
      <root>
        <mxCell id="bo48arWlyYDaiDBZN2Ql-0" />
        <mxCell id="bo48arWlyYDaiDBZN2Ql-1" parent="bo48arWlyYDaiDBZN2Ql-0" />
        <mxCell id="bo48arWlyYDaiDBZN2Ql-2" value="Architecting on AWS" style="text;html=1;resizable=0;points=[];autosize=1;align=left;verticalAlign=top;spacingTop=-4;fontSize=30;fontStyle=1" vertex="1" parent="bo48arWlyYDaiDBZN2Ql-1">
          <mxGeometry x="56.5" y="64.5" width="310" height="40" as="geometry" />
        </mxCell>
        <mxCell id="bo48arWlyYDaiDBZN2Ql-3" value="Day 1 - Thomson Reuters" style="text;html=1;resizable=0;points=[];autosize=1;align=left;verticalAlign=top;spacingTop=-4;fontSize=16;" vertex="1" parent="bo48arWlyYDaiDBZN2Ql-1">
          <mxGeometry x="56.5" y="114.5" width="200" height="20" as="geometry" />
        </mxCell>
        <mxCell id="9XKY4YUiLDB5OqvhZOao-0" value="" style="line;strokeWidth=2;html=1;fontSize=14;" vertex="1" parent="bo48arWlyYDaiDBZN2Ql-1">
          <mxGeometry x="62.5" y="149.5" width="1060" height="10" as="geometry" />
        </mxCell>
      </root>
    </mxGraphModel>
  </diagram>
  <diagram name="Copy of Page-2" id="kJfFOgehAS9UjATJBOH5">
    <mxGraphModel dx="1038" dy="579" grid="1" gridSize="10" guides="1" tooltips="1" connect="1" arrows="1" fold="1" page="1" pageScale="1" pageWidth="1169" pageHeight="827" math="0" shadow="0">
      <root>
        <mxCell id="v2f4b0ovpVkEQRIVf16q-0" />
        <mxCell id="v2f4b0ovpVkEQRIVf16q-1" parent="v2f4b0ovpVkEQRIVf16q-0" />
        <mxCell id="v2f4b0ovpVkEQRIVf16q-2" value="Architecting on AWS" style="text;html=1;resizable=0;points=[];autosize=1;align=left;verticalAlign=top;spacingTop=-4;fontSize=30;fontStyle=1" vertex="1" parent="v2f4b0ovpVkEQRIVf16q-1">
          <mxGeometry x="56.5" y="64.5" width="310" height="40" as="geometry" />
        </mxCell>
        <mxCell id="v2f4b0ovpVkEQRIVf16q-3" value="Day 1 - Thomson Reuters" style="text;html=1;resizable=0;points=[];autosize=1;align=left;verticalAlign=top;spacingTop=-4;fontSize=16;" vertex="1" parent="v2f4b0ovpVkEQRIVf16q-1">
          <mxGeometry x="56.5" y="114.5" width="200" height="20" as="geometry" />
        </mxCell>
        <mxCell id="v2f4b0ovpVkEQRIVf16q-4" value="" style="line;strokeWidth=2;html=1;fontSize=14;" vertex="1" parent="v2f4b0ovpVkEQRIVf16q-1">
          <mxGeometry x="62.5" y="149.5" width="1060" height="10" as="geometry" />
        </mxCell>
      </root>
    </mxGraphModel>
  </diagram>
  <diagram name="Copy of Copy of Page-2" id="QoeXLmIqQoDFbLUonDLl">
    <mxGraphModel dx="1038" dy="579" grid="1" gridSize="10" guides="1" tooltips="1" connect="1" arrows="1" fold="1" page="1" pageScale="1" pageWidth="1169" pageHeight="827" math="0" shadow="0">
      <root>
        <mxCell id="8ckIBYHFeD6DLJwMDTso-0" />
        <mxCell id="8ckIBYHFeD6DLJwMDTso-1" parent="8ckIBYHFeD6DLJwMDTso-0" />
        <mxCell id="8ckIBYHFeD6DLJwMDTso-2" value="Architecting on AWS" style="text;html=1;resizable=0;points=[];autosize=1;align=left;verticalAlign=top;spacingTop=-4;fontSize=30;fontStyle=1" vertex="1" parent="8ckIBYHFeD6DLJwMDTso-1">
          <mxGeometry x="56.5" y="64.5" width="310" height="40" as="geometry" />
        </mxCell>
        <mxCell id="8ckIBYHFeD6DLJwMDTso-3" value="Day 1 - Thomson Reuters" style="text;html=1;resizable=0;points=[];autosize=1;align=left;verticalAlign=top;spacingTop=-4;fontSize=16;" vertex="1" parent="8ckIBYHFeD6DLJwMDTso-1">
          <mxGeometry x="56.5" y="114.5" width="200" height="20" as="geometry" />
        </mxCell>
        <mxCell id="8ckIBYHFeD6DLJwMDTso-4" value="" style="line;strokeWidth=2;html=1;fontSize=14;" vertex="1" parent="8ckIBYHFeD6DLJwMDTso-1">
          <mxGeometry x="62.5" y="149.5" width="1060" height="10" as="geometry" />
        </mxCell>
      </root>
    </mxGraphModel>
  </diagram>
  <diagram name="Copy of Copy of Copy of Page-2" id="X1OJwWk3x9Y1EIO43QwC">
    <mxGraphModel dx="1038" dy="579" grid="1" gridSize="10" guides="1" tooltips="1" connect="1" arrows="1" fold="1" page="1" pageScale="1" pageWidth="1169" pageHeight="827" math="0" shadow="0">
      <root>
        <mxCell id="2Gd4SgRM4bg3doWQctIc-0" />
        <mxCell id="2Gd4SgRM4bg3doWQctIc-1" parent="2Gd4SgRM4bg3doWQctIc-0" />
        <mxCell id="2Gd4SgRM4bg3doWQctIc-2" value="Architecting on AWS" style="text;html=1;resizable=0;points=[];autosize=1;align=left;verticalAlign=top;spacingTop=-4;fontSize=30;fontStyle=1" vertex="1" parent="2Gd4SgRM4bg3doWQctIc-1">
          <mxGeometry x="56.5" y="64.5" width="310" height="40" as="geometry" />
        </mxCell>
        <mxCell id="2Gd4SgRM4bg3doWQctIc-3" value="Day 1 - Thomson Reuters" style="text;html=1;resizable=0;points=[];autosize=1;align=left;verticalAlign=top;spacingTop=-4;fontSize=16;" vertex="1" parent="2Gd4SgRM4bg3doWQctIc-1">
          <mxGeometry x="56.5" y="114.5" width="200" height="20" as="geometry" />
        </mxCell>
        <mxCell id="2Gd4SgRM4bg3doWQctIc-4" value="" style="line;strokeWidth=2;html=1;fontSize=14;" vertex="1" parent="2Gd4SgRM4bg3doWQctIc-1">
          <mxGeometry x="62.5" y="149.5" width="1060" height="10" as="geometry" />
        </mxCell>
      </root>
    </mxGraphModel>
  </diagram>
</mxfile>
